<?xml version="1.0" encoding="utf-8" ?>
<svg xmlns="http://www.w3.org/2000/svg" xmlns:xlink="http://www.w3.org/1999/xlink" width="20" height="20" viewBox="0 0 20 20">
	<defs>
		<clipPath id="clipPath0268336570">
			<path transform="matrix(1 0 0 1 0 0)" d="M0 0L20 0L20 20L0 20L0 0Z" fill-rule="nonzero"/>
		</clipPath>
	</defs>
	<g clip-path="url(#clipPath0268336570)">
		<defs>
			<clipPath id="clipPath6285749449">
				<path transform="matrix(1 0 0 1 0 0)" d="M0 0L20 0L20 20L0 20L0 0Z" fill-rule="nonzero"/>
			</clipPath>
		</defs>
		<g clip-path="url(#clipPath6285749449)">
			<path transform="matrix(1 0 0 1 1.25 3.125)" d="M15.3125 0L2.1875 0C1.58371 0.000646114 1.06834 0.214443 0.641389 0.641389C0.214442 1.06834 0.000645916 1.58371 0 2.1875L0 11.5625C0.000645916 12.1663 0.214442 12.6817 0.641389 13.1086C1.06834 13.5356 1.58371 13.7494 2.1875 13.75L15.3125 13.75C15.9163 13.7494 16.4317 13.5356 16.8586 13.1086C17.2856 12.6817 17.4994 12.1663 17.5 11.5625L17.5 2.1875C17.4994 1.58371 17.2856 1.06834 16.8586 0.641389C16.4317 0.214442 15.9163 0.000645717 15.3125 0ZM14.7586 3.61836L9.13359 7.99336C9.02077 8.08107 8.8929 8.12492 8.75 8.12492C8.60709 8.12492 8.47923 8.08107 8.36641 7.99336L2.74141 3.61836C2.6023 3.51331 2.52132 3.37439 2.49845 3.20159C2.47559 3.02878 2.51765 2.87357 2.62464 2.73597C2.73164 2.59836 2.87169 2.51934 3.0448 2.49891C3.21791 2.47847 3.3725 2.52272 3.50859 2.63164L8.75 6.7082L13.9914 2.63164C14.1278 2.52866 14.2806 2.48838 14.45 2.51079C14.6194 2.53321 14.7566 2.61186 14.8615 2.74676C14.9664 2.88166 15.0088 3.03396 14.9888 3.20366C14.9687 3.37335 14.892 3.51159 14.7586 3.61836Z" fill-rule="nonzero" fill="rgb(67, 24, 255)"/>
		</g>
	</g>
</svg>
