<?xml version="1.0" encoding="utf-8" ?>
<svg xmlns="http://www.w3.org/2000/svg" xmlns:xlink="http://www.w3.org/1999/xlink" width="20" height="20" viewBox="0 0 20 20">
	<defs>
		<clipPath id="clipPath9246507095">
			<path transform="matrix(1 0 0 1 0 0)" d="M0 0L20 0L20 20L0 20L0 0Z" fill-rule="nonzero"/>
		</clipPath>
	</defs>
	<g clip-path="url(#clipPath9246507095)">
		<path transform="matrix(1 0 0 1 1.25 0)" d="M15.625 8.75L14.6875 8.75L14.6875 5.9375C14.6875 2.66406 12.0234 0 8.75 0C5.47656 0 2.8125 2.66406 2.8125 5.9375L2.8125 8.75L1.875 8.75C0.839844 8.75 0 9.58984 0 10.625L0 18.125C0 19.1602 0.839844 20 1.875 20L15.625 20C16.6602 20 17.5 19.1602 17.5 18.125L17.5 10.625C17.5 9.58984 16.6602 8.75 15.625 8.75ZM11.5625 8.75L5.9375 8.75L5.9375 5.9375C5.9375 4.38672 7.19922 3.125 8.75 3.125C10.3008 3.125 11.5625 4.38672 11.5625 5.9375L11.5625 8.75Z" fill-rule="nonzero" fill="rgb(47, 0, 255)"/>
	</g>
</svg>
