<?xml version="1.0" encoding="utf-8" ?>
<svg xmlns="http://www.w3.org/2000/svg" xmlns:xlink="http://www.w3.org/1999/xlink" width="20" height="20" viewBox="0 0 20 20">
	<defs>
		<clipPath id="clipPath4257898450">
			<path transform="matrix(1 0 0 1 0 0)" d="M0 0L20 0L20 20L0 20L0 0Z" fill-rule="nonzero"/>
		</clipPath>
	</defs>
	<g clip-path="url(#clipPath4257898450)">
		<defs>
			<clipPath id="clipPath7308481466">
				<path transform="matrix(1 0 0 1 0 0)" d="M0 0L20 0L20 20L0 20L0 0Z" fill-rule="nonzero"/>
			</clipPath>
		</defs>
		<g clip-path="url(#clipPath7308481466)">
			<path transform="matrix(1 0 0 1 1.25 0)" d="M2.5 8.75L3.02734 8.75C3.99219 10.957 6.1875 12.5 8.75 12.5C11.3125 12.5 13.5078 10.957 14.4727 8.75L15 8.75C15.3438 8.75 15.625 8.46875 15.625 8.125L15.625 4.375C15.625 4.03125 15.3438 3.75 15 3.75L14.4727 3.75C13.5078 1.54297 11.3125 0 8.75 0C6.1875 0 3.99219 1.54297 3.02734 3.75L2.5 3.75C2.15625 3.75 1.875 4.03125 1.875 4.375L1.875 8.125C1.875 8.46875 2.15625 8.75 2.5 8.75ZM4.0625 5.3125C4.0625 4.44922 4.90234 3.75 5.9375 3.75L11.5625 3.75C12.5977 3.75 13.4375 4.44922 13.4375 5.3125L13.4375 6.25C13.4375 8.32031 11.7578 10 9.6875 10L7.8125 10C5.74219 10 4.0625 8.32031 4.0625 6.25L4.0625 5.3125ZM6.875 8.125L7.34375 6.71875L8.75 6.25L7.34375 5.78125L6.875 4.375L6.40625 5.78125L5 6.25L6.40625 6.71875L6.875 8.125ZM12.7969 12.5547C11.6289 13.3086 10.2422 13.75 8.75 13.75C7.25781 13.75 5.87109 13.3086 4.70312 12.5547C2.06641 12.832 0 15.0391 0 17.75L0 18.125C0 19.1602 0.839844 20 1.875 20L5 20L5 17.5C5 16.8086 5.55859 16.25 6.25 16.25L11.25 16.25C11.9414 16.25 12.5 16.8086 12.5 17.5L12.5 20L15.625 20C16.6602 20 17.5 19.1602 17.5 18.125L17.5 17.75C17.5 15.0391 15.4336 12.832 12.7969 12.5547ZM10.625 17.5C10.2812 17.5 10 17.7812 10 18.125C10 18.4688 10.2812 18.75 10.625 18.75C10.9688 18.75 11.25 18.4688 11.25 18.125C11.25 17.7812 10.9688 17.5 10.625 17.5ZM6.875 17.5C6.53125 17.5 6.25 17.7812 6.25 18.125L6.25 20L7.5 20L7.5 18.125C7.5 17.7812 7.21875 17.5 6.875 17.5Z" fill-rule="nonzero" fill="rgb(67, 24, 255)"/>
		</g>
	</g>
</svg>
